<?xml version="1.0" encoding="UTF-8"?>
<svg width="25px" height="32px" viewBox="0 0 25 32" version="1.1" xmlns="http://www.w3.org/2000/svg" xmlns:xlink="http://www.w3.org/1999/xlink">
    <title>定位 (1)@1x</title>
    <g id="空中紧急救援调度系统" stroke="none" stroke-width="1" fill="none" fill-rule="evenodd">
        <g id="动态监控-实时监控（小卡片）-2备份" transform="translate(-1007.000000, -369.000000)" fill-rule="nonzero">
            <g id="位图" transform="translate(514.000000, 45.000000)">
                <g id="定位-(1)" transform="translate(493.000000, 324.000000)">
                    <path d="M12.30832,25.10656 C12.6936,25.10656 20.71232,13.04432 20.71232,8.404 C20.71232,3.76368 16.94864,0 12.30832,0 C7.668,0 3.90432,3.76368 3.90432,8.404 C3.90432,13.04432 11.92304,25.10656 12.30832,25.10656 Z" id="路径" fill="#1D61EE"></path>
                    <path d="M8.33552,8.404 C8.33552,6.2104 10.11472,4.4312 12.30832,4.4312 C14.50208,4.4312 16.28112,6.2104 16.28112,8.404 C16.28112,10.59776 14.50192,12.3768 12.30832,12.3768 C10.11472,12.3768 8.33552,10.59776 8.33552,8.404 Z" id="路径" fill="#FFFFFF"></path>
                    <path d="M18.38304,23.02064 L18.38304,23.02064 C20.21056,23.63536 21.35872,24.52336 21.35872,25.51088 C21.35872,27.36672 17.3056,28.87168 12.30832,28.87168 C7.31104,28.87168 3.25792,27.36688 3.25792,25.51088 C3.25792,24.52336 4.40608,23.63552 6.2336,23.02064 C2.51136,23.84656 0,25.40768 0,27.19744 C0,29.84928 5.51232,32 12.30832,32 C19.10432,32 24.61664,29.84928 24.61664,27.19728 C24.61664,25.40768 22.10528,23.84656 18.38304,23.02064 Z" id="路径" fill="#548CFF"></path>
                </g>
            </g>
        </g>
    </g>
</svg>