<?xml version="1.0" encoding="UTF-8"?>
<svg width="16px" height="16px" viewBox="0 0 16 16" version="1.1" xmlns="http://www.w3.org/2000/svg" xmlns:xlink="http://www.w3.org/1999/xlink">
    <title>起降场地icon@1x</title>
    <g id="空中紧急救援调度系统" stroke="none" stroke-width="1" fill="none" fill-rule="evenodd">
        <g id="起降场地-icon" transform="translate(-757.000000, -364.000000)" fill="#19AC9E">
            <path d="M757.456,374.976222 L761.376976,375.318853 L760.967,379.999222 L757,380 L757.456,374.976222 Z M762.262593,375.396334 L772.664,376.306222 L773,380 L761.859,379.999222 L762.262593,375.396334 Z M769.393731,370.221842 L772.111111,370.222222 L772.582,375.407222 L767.653,374.976222 L767.654,374.962222 L768.555556,374.962963 L768.659219,374.956983 C769.064458,374.909915 769.386566,374.590294 769.437437,374.186227 L769.444444,374.074074 L769.444444,370.518519 L769.438464,370.414855 C769.430696,370.347971 769.415503,370.283352 769.393731,370.221842 Z M760.606503,370.221183 C760.584509,370.283162 760.569197,370.348305 760.561433,370.415744 L760.555556,370.518519 L760.555556,374.074074 L760.561536,374.177737 C760.568859,374.24079 760.582781,374.301831 760.602593,374.36015 L757.537,374.091222 L757.888889,370.222222 L760.606503,370.221183 Z M762.62963,370.518519 L763.814815,371.703704 L762.62963,371.703704 L762.62963,372.888889 L767.37037,372.888889 L767.37037,371.703704 L766.185185,371.703704 L767.37037,370.518519 L768.555556,370.518519 L768.555556,374.074074 L761.444444,374.074074 L761.444444,370.518519 L762.62963,370.518519 Z M765,364 C766.659259,364 767.962963,365.303704 767.962963,366.962963 C767.962963,368.444444 766.955556,369.985185 765,371.585185 C763.044444,369.985185 762.037037,368.444444 762.037037,366.962963 C762.037037,365.303704 763.340741,364 765,364 Z M765,365.185185 C763.992593,365.185185 763.222222,365.955556 763.222222,366.962963 C763.222222,368.02963 763.814815,369.037037 765,370.103704 C766.185185,369.037037 766.777778,368.02963 766.777778,366.962963 C766.777778,365.955556 766.007407,365.185185 765,365.185185 Z M765,366.37037 C765.355556,366.37037 765.592593,366.607407 765.592593,366.962963 C765.592593,367.318519 765.355556,367.555556 765,367.555556 C764.644444,367.555556 764.407407,367.318519 764.407407,366.962963 C764.407407,366.607407 764.644444,366.37037 765,366.37037 Z" id="起降场地icon"></path>
        </g>
    </g>
</svg>